<?xml version="1.0" encoding="UTF-8" standalone="no"?>
<!-- Created with Inkscape (http://www.inkscape.org/) -->

<svg
   xmlns:dc="http://purl.org/dc/elements/1.1/"
   xmlns:cc="http://creativecommons.org/ns#"
   xmlns:rdf="http://www.w3.org/1999/02/22-rdf-syntax-ns#"
   xmlns:svg="http://www.w3.org/2000/svg"
   xmlns="http://www.w3.org/2000/svg"
   xmlns:xlink="http://www.w3.org/1999/xlink"
   xmlns:sodipodi="http://sodipodi.sourceforge.net/DTD/sodipodi-0.dtd"
   xmlns:inkscape="http://www.inkscape.org/namespaces/inkscape"
   width="32"
   height="32"
   id="svg2"
   sodipodi:version="0.32"
   inkscape:version="0.48.3.1 r9886"
   version="1.0"
   sodipodi:docname="emulica-loop-actuator.svg"
   inkscape:output_extension="org.inkscape.output.svg.inkscape"
   inkscape:export-filename="/home/remi/ProjetsThese/Projets/pyseme/pixmap/loop-actuator16.png"
   inkscape:export-xdpi="30"
   inkscape:export-ydpi="30">
  <defs
     id="defs4">
    <linearGradient
       id="linearGradient3406">
      <stop
         style="stop-color:#d3d7cf;stop-opacity:1"
         offset="0"
         id="stop3408" />
      <stop
         style="stop-color:#eeeeec;stop-opacity:1"
         offset="1"
         id="stop3410" />
    </linearGradient>
    <linearGradient
       id="linearGradient3400">
      <stop
         style="stop-color:#ef2929;stop-opacity:1"
         offset="0"
         id="stop3402" />
      <stop
         style="stop-color:#eeeeec;stop-opacity:1"
         offset="1"
         id="stop3404" />
    </linearGradient>
    <linearGradient
       id="linearGradient3394">
      <stop
         id="stop3396"
         offset="0"
         style="stop-color:#8ae234;stop-opacity:1" />
      <stop
         id="stop3398"
         offset="1"
         style="stop-color:#eeeeec;stop-opacity:1" />
    </linearGradient>
    <linearGradient
       id="linearGradient3388">
      <stop
         id="stop3390"
         offset="0"
         style="stop-color:#8ae234;stop-opacity:1" />
      <stop
         id="stop3392"
         offset="1"
         style="stop-color:#eeeeec;stop-opacity:1" />
    </linearGradient>
    <linearGradient
       id="linearGradient3341">
      <stop
         id="stop3343"
         offset="0"
         style="stop-color:#cccccc;stop-opacity:1" />
      <stop
         id="stop3345"
         offset="1"
         style="stop-color:#ffffff;stop-opacity:1" />
    </linearGradient>
    <linearGradient
       id="linearGradient3265">
      <stop
         id="stop3267"
         offset="0"
         style="stop-color:#ff0000;stop-opacity:1" />
      <stop
         id="stop3269"
         offset="1"
         style="stop-color:#ffffff;stop-opacity:1" />
    </linearGradient>
    <linearGradient
       id="linearGradient3203">
      <stop
         style="stop-color:#0000ff;stop-opacity:1;"
         offset="0"
         id="stop3205" />
      <stop
         style="stop-color:#0000ff;stop-opacity:0;"
         offset="1"
         id="stop3207" />
    </linearGradient>
    <marker
       inkscape:stockid="Arrow2Mend"
       orient="auto"
       refY="0"
       refX="0"
       id="Arrow2Mend"
       style="overflow:visible">
      <path
         id="path3243"
         style="font-size:12px;fill-rule:evenodd;stroke-width:0.625;stroke-linejoin:round"
         d="M 8.7185878,4.0337352 -2.2072895,0.01601326 8.7185884,-4.0017078 c -1.7454984,2.3720609 -1.7354408,5.6174519 -6e-7,8.035443 z"
         transform="scale(-0.6,-0.6)"
         inkscape:connector-curvature="0" />
    </marker>
    <marker
       inkscape:stockid="Arrow1Mend"
       orient="auto"
       refY="0"
       refX="0"
       id="Arrow1Mend"
       style="overflow:visible">
      <path
         id="path3225"
         d="M 0,0 5,-5 -12.5,0 5,5 0,0 z"
         style="fill-rule:evenodd;stroke:#000000;stroke-width:1pt;marker-start:none"
         transform="matrix(-0.4,0,0,-0.4,-4,0)"
         inkscape:connector-curvature="0" />
    </marker>
    <marker
       inkscape:stockid="TriangleOutM"
       orient="auto"
       refY="0"
       refX="0"
       id="TriangleOutM"
       style="overflow:visible">
      <path
         id="path3362"
         d="m 5.77,0 -8.65,5 0,-10 8.65,5 z"
         style="fill-rule:evenodd;stroke:#000000;stroke-width:1pt;marker-start:none"
         transform="scale(0.4,0.4)"
         inkscape:connector-curvature="0" />
    </marker>
    <marker
       inkscape:stockid="Arrow1Lend"
       orient="auto"
       refY="0"
       refX="0"
       id="Arrow1Lend"
       style="overflow:visible">
      <path
         id="path3219"
         d="M 0,0 5,-5 -12.5,0 5,5 0,0 z"
         style="fill-rule:evenodd;stroke:#000000;stroke-width:1pt;marker-start:none"
         transform="matrix(-0.8,0,0,-0.8,-10,0)"
         inkscape:connector-curvature="0" />
    </marker>
    <inkscape:perspective
       sodipodi:type="inkscape:persp3d"
       inkscape:vp_x="0 : 526.18109 : 1"
       inkscape:vp_y="0 : 1000 : 0"
       inkscape:vp_z="744.09448 : 526.18109 : 1"
       inkscape:persp3d-origin="372.04724 : 350.78739 : 1"
       id="perspective10" />
    <linearGradient
       inkscape:collect="always"
       xlink:href="#linearGradient3203"
       id="linearGradient3209"
       x1="17.951576"
       y1="27.132767"
       x2="15.151117"
       y2="15.227998"
       gradientUnits="userSpaceOnUse" />
    <linearGradient
       inkscape:collect="always"
       xlink:href="#linearGradient3203"
       id="linearGradient3224"
       gradientUnits="userSpaceOnUse"
       x1="17.951576"
       y1="27.132767"
       x2="15.151117"
       y2="15.227998" />
    <linearGradient
       inkscape:collect="always"
       xlink:href="#linearGradient3203"
       id="linearGradient3239"
       gradientUnits="userSpaceOnUse"
       x1="17.951576"
       y1="27.132767"
       x2="15.151117"
       y2="15.227998" />
    <linearGradient
       inkscape:collect="always"
       xlink:href="#linearGradient3265"
       id="linearGradient3255"
       gradientUnits="userSpaceOnUse"
       x1="17.951576"
       y1="27.132767"
       x2="15.151117"
       y2="15.227998" />
    <linearGradient
       inkscape:collect="always"
       xlink:href="#linearGradient3265"
       id="linearGradient3273"
       gradientUnits="userSpaceOnUse"
       x1="17.951576"
       y1="27.132767"
       x2="15.151117"
       y2="15.227998" />
    <linearGradient
       inkscape:collect="always"
       xlink:href="#linearGradient3203"
       id="linearGradient3285"
       gradientUnits="userSpaceOnUse"
       x1="17.951576"
       y1="27.132767"
       x2="15.151117"
       y2="15.227998" />
    <linearGradient
       inkscape:collect="always"
       xlink:href="#linearGradient3203"
       id="linearGradient3295"
       gradientUnits="userSpaceOnUse"
       x1="17.951576"
       y1="27.132767"
       x2="15.151117"
       y2="15.227998" />
    <linearGradient
       inkscape:collect="always"
       xlink:href="#linearGradient3203"
       id="linearGradient3313"
       gradientUnits="userSpaceOnUse"
       x1="17.951576"
       y1="27.132767"
       x2="15.151117"
       y2="15.227998" />
    <linearGradient
       inkscape:collect="always"
       xlink:href="#linearGradient3203"
       id="linearGradient3315"
       gradientUnits="userSpaceOnUse"
       x1="17.951576"
       y1="27.132767"
       x2="15.151117"
       y2="15.227998" />
    <linearGradient
       inkscape:collect="always"
       xlink:href="#linearGradient3203"
       id="linearGradient3327"
       gradientUnits="userSpaceOnUse"
       x1="17.951576"
       y1="27.132767"
       x2="15.151117"
       y2="15.227998" />
    <linearGradient
       inkscape:collect="always"
       xlink:href="#linearGradient3341"
       id="linearGradient3339"
       gradientUnits="userSpaceOnUse"
       x1="17.951576"
       y1="27.132767"
       x2="15.151117"
       y2="15.227998" />
    <linearGradient
       inkscape:collect="always"
       xlink:href="#linearGradient3203"
       id="linearGradient3347"
       gradientUnits="userSpaceOnUse"
       x1="17.951576"
       y1="27.132767"
       x2="15.151117"
       y2="15.227998" />
    <linearGradient
       inkscape:collect="always"
       xlink:href="#linearGradient3406"
       id="linearGradient3380"
       gradientUnits="userSpaceOnUse"
       x1="17.951576"
       y1="27.132767"
       x2="15.151117"
       y2="15.227998" />
    <linearGradient
       inkscape:collect="always"
       xlink:href="#linearGradient3394"
       id="linearGradient3382"
       gradientUnits="userSpaceOnUse"
       x1="17.951576"
       y1="27.132767"
       x2="15.151117"
       y2="15.227998" />
    <linearGradient
       inkscape:collect="always"
       xlink:href="#linearGradient3388"
       id="linearGradient3384"
       gradientUnits="userSpaceOnUse"
       x1="17.951576"
       y1="27.132767"
       x2="15.151117"
       y2="15.227998" />
    <linearGradient
       inkscape:collect="always"
       xlink:href="#linearGradient3400"
       id="linearGradient3386"
       gradientUnits="userSpaceOnUse"
       x1="17.951576"
       y1="27.132767"
       x2="15.151117"
       y2="15.227998" />
  </defs>
  <sodipodi:namedview
     id="base"
     pagecolor="#ffffff"
     bordercolor="#666666"
     borderopacity="1.0"
     inkscape:pageopacity="0.0"
     inkscape:pageshadow="2"
     inkscape:zoom="9.359375"
     inkscape:cx="-7.5661905"
     inkscape:cy="13.350485"
     inkscape:document-units="px"
     inkscape:current-layer="g3349"
     showgrid="false"
     inkscape:window-width="1439"
     inkscape:window-height="827"
     inkscape:window-x="0"
     inkscape:window-y="27"
     showguides="true"
     inkscape:guide-bbox="true"
     fit-margin-top="0"
     fit-margin-left="0"
     fit-margin-right="0"
     fit-margin-bottom="0"
     inkscape:window-maximized="0" />
  <metadata
     id="metadata7">
    <rdf:RDF>
      <cc:Work
         rdf:about="">
        <dc:format>image/svg+xml</dc:format>
        <dc:type
           rdf:resource="http://purl.org/dc/dcmitype/StillImage" />
      </cc:Work>
    </rdf:RDF>
  </metadata>
  <g
     inkscape:label="Calque 1"
     inkscape:groupmode="layer"
     id="layer1"
     transform="translate(-16.006925,-14.205243)">
    <g
       id="g11647"
       transform="translate(0,0.6811348)">
      <g
         id="g3349"
         transform="translate(0.1869785,1.0041153)">
        <path
           sodipodi:type="arc"
           style="fill:none;stroke:#babdb6;stroke-width:0.861;stroke-linejoin:round;stroke-miterlimit:4;stroke-opacity:1;stroke-dasharray:none;marker-end:none"
           id="path8868"
           sodipodi:cx="8.1335564"
           sodipodi:cy="11.859766"
           sodipodi:rx="6.2103505"
           sodipodi:ry="5.7696161"
           d="M 8.2280794,17.628714 A 6.2103505,5.7696161 0 0 1 1.9351917,12.21805"
           sodipodi:start="1.5555755"
           sodipodi:end="3.0794542"
           transform="matrix(1.7341126,0,0,1.9063673,17.795927,6.1809759)"
           sodipodi:open="true" />
        <path
           sodipodi:type="arc"
           style="fill:none;stroke:#2e3436;stroke-width:0.861;stroke-linejoin:round;stroke-miterlimit:4;stroke-opacity:1;stroke-dasharray:none;marker-end:none"
           id="path11687"
           sodipodi:cx="8.1335564"
           sodipodi:cy="11.859766"
           sodipodi:rx="6.2103505"
           sodipodi:ry="5.7696161"
           d="M 14.32669,12.28909 A 6.2103505,5.7696161 0 0 1 8.4760096,17.620604"
           sodipodi:start="0.074480109"
           sodipodi:end="1.515626"
           transform="matrix(1.7341126,0,0,1.9063673,17.787806,6.1484749)"
           sodipodi:open="true" />
        <path
           sodipodi:type="arc"
           style="fill:none;stroke:#2e3436;stroke-width:0.861;stroke-linejoin:round;stroke-miterlimit:4;stroke-opacity:1;stroke-dasharray:none;marker-end:none"
           id="path11078"
           sodipodi:cx="8.1335564"
           sodipodi:cy="11.859766"
           sodipodi:rx="6.2103505"
           sodipodi:ry="5.7696161"
           d="M 14.013093,13.717716 A 6.2103505,5.7696161 0 0 1 8.0161867,17.628352"
           sodipodi:start="0.32786577"
           sodipodi:end="1.5896965"
           transform="matrix(1.7341126,0,0,-1.9063673,17.740567,51.435147)"
           sodipodi:open="true" />
        <path
           sodipodi:type="arc"
           style="fill:none;stroke:#000000;stroke-width:4;stroke-linejoin:round;stroke-miterlimit:4;stroke-opacity:1;stroke-dasharray:none"
           id="path2415"
           sodipodi:cx="15.643724"
           sodipodi:cy="7.6275306"
           sodipodi:rx="0"
           sodipodi:ry="0.34008098"
           sodipodi:start="0.00022780819"
           sodipodi:end="0.00075601638"
           sodipodi:open="true"
           transform="matrix(1.3418935,0,0,1.3069449,0.03700693,-0.5641838)" />
        <path
           sodipodi:type="arc"
           style="fill:none;stroke:#babdb6;stroke-width:0.861;stroke-linejoin:round;stroke-miterlimit:4;stroke-opacity:1;stroke-dasharray:none;marker-end:none"
           id="path10537"
           sodipodi:cx="8.1335564"
           sodipodi:cy="11.859766"
           sodipodi:rx="6.2103505"
           sodipodi:ry="5.7696161"
           d="M 5.1562087,16.923107 A 6.2103505,5.7696161 0 0 1 2.213764,13.603902"
           sodipodi:start="2.0707866"
           sodipodi:end="2.8344915"
           transform="matrix(1.7341126,0,0,-1.9063673,17.690984,51.532546)"
           sodipodi:open="true" />
        <g
           id="g3329"
           transform="matrix(0.6622766,0,0,0.6740037,26.476437,2.2996819)">
          <g
             id="g3331">
            <path
               transform="matrix(-1.0130914,0,0,-0.9695384,21.943687,45.735342)"
               sodipodi:open="true"
               sodipodi:end="6.2738032"
               sodipodi:start="0.00022780819"
               d="m 21.795355,23.661087 c -0.001,2.830941 -3.713127,5.125349 -8.29117,5.124704 -4.5780442,-6.45e-4 -8.2884365,-2.296099 -8.2873936,-5.127039 0.00104,-2.83094 3.7131261,-5.125348 8.2911696,-5.124703 4.546966,6.4e-4 8.24437,2.266181 8.287029,5.07778"
               sodipodi:ry="5.1258712"
               sodipodi:rx="8.2892818"
               sodipodi:cy="23.65992"
               sodipodi:cx="13.506073"
               id="path3333"
               style="fill:#ffffff;fill-opacity:1;fill-rule:nonzero;stroke:none"
               sodipodi:type="arc" />
            <path
               transform="matrix(-1.0130914,0,0,-0.9695384,22.014641,45.778515)"
               sodipodi:open="true"
               sodipodi:end="6.2738032"
               sodipodi:start="0.00022780819"
               d="m 21.795355,23.661087 c -0.001,2.830941 -3.713127,5.125349 -8.29117,5.124704 -4.5780442,-6.45e-4 -8.2884365,-2.296099 -8.2873936,-5.127039 0.00104,-2.83094 3.7131261,-5.125348 8.2911696,-5.124703 4.546966,6.4e-4 8.24437,2.266181 8.287029,5.07778"
               sodipodi:ry="5.1258712"
               sodipodi:rx="8.2892818"
               sodipodi:cy="23.65992"
               sodipodi:cx="13.506073"
               id="path3335"
               style="fill:url(#linearGradient3380);fill-opacity:1;fill-rule:nonzero;stroke:none"
               sodipodi:type="arc" />
          </g>
          <path
             sodipodi:nodetypes="cczzzc"
             transform="translate(0,-0.6811348)"
             id="path3337"
             d="m 16.747913,23.559265 c -11.4771603,-0.0049 -15.7061768,2.422617 -15.7061768,2.422617 0,0 1.2231216,1.069464 2.5763545,1.644752 1.3906279,0.591185 4.7248644,1.332899 7.0893793,0.688105 2.390897,-0.651988 2.803065,-0.747118 4.037938,-1.601934 1.234873,-0.854815 2.002505,-2.184011 2.002505,-3.15354 z"
             style="fill:#d3d7cf;fill-opacity:1;fill-rule:evenodd;stroke:none"
             inkscape:connector-curvature="0" />
        </g>
        <path
           style="fill:#babdb6;fill-opacity:1;fill-rule:evenodd;stroke:none"
           d="m 24.58816,18.107573 5.752892,-0.890207 -3.763574,4.503396 c 0,0 0.334769,-1.063525 -0.268827,-2.146967 -0.591796,-1.062262 -1.720491,-1.466222 -1.720491,-1.466222 z"
           id="path11615"
           sodipodi:nodetypes="ccczc"
           inkscape:connector-curvature="0" />
        <g
           transform="matrix(0.6622766,0,0,0.6740037,26.295941,23.932016)"
           id="g3297">
          <g
             id="g3233">
            <path
               sodipodi:type="arc"
               style="fill:#ffffff;fill-opacity:1;fill-rule:nonzero;stroke:none"
               id="path3241"
               sodipodi:cx="13.506073"
               sodipodi:cy="23.65992"
               sodipodi:rx="8.2892818"
               sodipodi:ry="5.1258712"
               d="m 21.795355,23.661087 c -0.001,2.830941 -3.713127,5.125349 -8.29117,5.124704 -4.5780442,-6.45e-4 -8.2884365,-2.296099 -8.2873936,-5.127039 0.00104,-2.83094 3.7131261,-5.125348 8.2911696,-5.124703 4.546966,6.4e-4 8.24437,2.266181 8.287029,5.07778"
               sodipodi:start="0.00022780819"
               sodipodi:end="6.2738032"
               sodipodi:open="true"
               transform="matrix(-1.0130914,0,0,-0.9695384,21.943687,45.735342)" />
            <path
               sodipodi:type="arc"
               style="fill:url(#linearGradient3382);fill-opacity:1;fill-rule:nonzero;stroke:none"
               id="path3235"
               sodipodi:cx="13.506073"
               sodipodi:cy="23.65992"
               sodipodi:rx="8.2892818"
               sodipodi:ry="5.1258712"
               d="m 21.795355,23.661087 c -0.001,2.830941 -3.713127,5.125349 -8.29117,5.124704 -4.5780442,-6.45e-4 -8.2884365,-2.296099 -8.2873936,-5.127039 0.00104,-2.83094 3.7131261,-5.125348 8.2911696,-5.124703 4.546966,6.4e-4 8.24437,2.266181 8.287029,5.07778"
               sodipodi:start="0.00022780819"
               sodipodi:end="6.2738032"
               sodipodi:open="true"
               transform="matrix(-1.0130914,0,0,-0.9695384,22.014641,45.778515)" />
          </g>
          <path
             style="fill:#8ae234;fill-opacity:1;fill-rule:evenodd;stroke:none"
             d="m 16.747913,23.559265 c -11.4771603,-0.0049 -15.7061768,2.422617 -15.7061768,2.422617 0,0 1.2231216,1.069464 2.5763545,1.644752 1.3906279,0.591185 4.7248644,1.332899 7.0893793,0.688105 2.390897,-0.651988 2.803065,-0.747118 4.037938,-1.601934 1.234873,-0.854815 2.002505,-2.184011 2.002505,-3.15354 z"
             id="path3237"
             transform="translate(0,-0.6811348)"
             sodipodi:nodetypes="cczzzc"
             inkscape:connector-curvature="0" />
        </g>
        <g
           id="g3303"
           transform="matrix(0.6622766,0,0,0.6740037,15.917603,13.036482)">
          <g
             id="g3305">
            <path
               sodipodi:type="arc"
               style="fill:#ffffff;fill-opacity:1;fill-rule:nonzero;stroke:none"
               id="path3307"
               sodipodi:cx="13.506073"
               sodipodi:cy="23.65992"
               sodipodi:rx="8.2892818"
               sodipodi:ry="5.1258712"
               d="m 21.795355,23.661087 c -0.001,2.830941 -3.713127,5.125349 -8.29117,5.124704 -4.5780442,-6.45e-4 -8.2884365,-2.296099 -8.2873936,-5.127039 0.00104,-2.83094 3.7131261,-5.125348 8.2911696,-5.124703 4.546966,6.4e-4 8.24437,2.266181 8.287029,5.07778"
               sodipodi:start="0.00022780819"
               sodipodi:end="6.2738032"
               sodipodi:open="true"
               transform="matrix(-1.0130914,0,0,-0.9695384,21.943687,45.735342)" />
            <path
               sodipodi:type="arc"
               style="fill:url(#linearGradient3384);fill-opacity:1;fill-rule:nonzero;stroke:none"
               id="path3309"
               sodipodi:cx="13.506073"
               sodipodi:cy="23.65992"
               sodipodi:rx="8.2892818"
               sodipodi:ry="5.1258712"
               d="m 21.795355,23.661087 c -0.001,2.830941 -3.713127,5.125349 -8.29117,5.124704 -4.5780442,-6.45e-4 -8.2884365,-2.296099 -8.2873936,-5.127039 0.00104,-2.83094 3.7131261,-5.125348 8.2911696,-5.124703 4.546966,6.4e-4 8.24437,2.266181 8.287029,5.07778"
               sodipodi:start="0.00022780819"
               sodipodi:end="6.2738032"
               sodipodi:open="true"
               transform="matrix(-1.0130914,0,0,-0.9695384,22.014641,45.778515)" />
          </g>
          <path
             style="fill:#8ae234;fill-opacity:1;fill-rule:evenodd;stroke:none"
             d="m 16.747913,23.559265 c -11.4771603,-0.0049 -15.7061768,2.422617 -15.7061768,2.422617 0,0 1.2231216,1.069464 2.5763545,1.644752 1.3906279,0.591185 4.7248644,1.332899 7.0893793,0.688105 2.390897,-0.651988 2.803065,-0.747118 4.037938,-1.601934 1.234873,-0.854815 2.002505,-2.184011 2.002505,-3.15354 z"
             id="path3311"
             transform="translate(0,-0.6811348)"
             sodipodi:nodetypes="cczzzc"
             inkscape:connector-curvature="0" />
        </g>
        <path
           style="fill:#babdb6;fill-opacity:1;fill-rule:evenodd;stroke:none"
           d="m 20.189999,34.422799 0.319132,-5.807078 3.62783,4.381785 c 0,0 -1.035939,-0.4684 -2.220432,-0.03418 -1.16134,0.425729 -1.72653,1.459473 -1.72653,1.459473 z"
           id="path11623"
           sodipodi:nodetypes="ccczc"
           inkscape:connector-curvature="0" />
        <path
           style="fill:#2e3436;fill-opacity:1;fill-rule:evenodd;stroke:none"
           d="m 40.206993,38.791775 -5.752892,0.890207 3.763574,-4.503396 c 0,0 -0.334768,1.063526 0.268827,2.146967 0.591796,1.062262 1.720491,1.466222 1.720491,1.466222 z"
           id="path11625"
           sodipodi:nodetypes="ccczc"
           inkscape:connector-curvature="0" />
        <g
           transform="matrix(0.6622766,0,0,0.6740037,36.72127,13.414554)"
           id="g3245">
          <g
             id="g3247">
            <path
               sodipodi:type="arc"
               style="fill:#ffffff;fill-opacity:1;fill-rule:nonzero;stroke:none"
               id="path3249"
               sodipodi:cx="13.506073"
               sodipodi:cy="23.65992"
               sodipodi:rx="8.2892818"
               sodipodi:ry="5.1258712"
               d="m 21.795355,23.661087 c -0.001,2.830941 -3.713127,5.125349 -8.29117,5.124704 -4.5780442,-6.45e-4 -8.2884365,-2.296099 -8.2873936,-5.127039 0.00104,-2.83094 3.7131261,-5.125348 8.2911696,-5.124703 4.546966,6.4e-4 8.24437,2.266181 8.287029,5.07778"
               sodipodi:start="0.00022780819"
               sodipodi:end="6.2738032"
               sodipodi:open="true"
               transform="matrix(-1.0130914,0,0,-0.9695384,21.979164,45.756928)" />
            <path
               sodipodi:type="arc"
               style="fill:url(#linearGradient3386);fill-opacity:1;fill-rule:nonzero;stroke:none"
               id="path3251"
               sodipodi:cx="13.506073"
               sodipodi:cy="23.65992"
               sodipodi:rx="8.2892818"
               sodipodi:ry="5.1258712"
               d="m 21.795355,23.661087 c -0.001,2.830941 -3.713127,5.125349 -8.29117,5.124704 -4.5780442,-6.45e-4 -8.2884365,-2.296099 -8.2873936,-5.127039 0.00104,-2.83094 3.7131261,-5.125348 8.2911696,-5.124703 4.546966,6.4e-4 8.24437,2.266181 8.287029,5.07778"
               sodipodi:start="0.00022780819"
               sodipodi:end="6.2738032"
               sodipodi:open="true"
               transform="matrix(-1.0130914,0,0,-0.9695384,21.979164,45.756928)" />
          </g>
          <path
             style="fill:#ef2929;fill-opacity:1;fill-rule:evenodd;stroke:none"
             d="m 16.747913,23.559265 c -11.4771603,-0.0049 -15.7061768,2.422617 -15.7061768,2.422617 0,0 1.2231216,1.069464 2.5763545,1.644752 1.3906279,0.591185 4.7248644,1.332899 7.0893793,0.688105 2.390897,-0.651988 2.803065,-0.747118 4.037938,-1.601934 1.234873,-0.854815 2.002505,-2.184011 2.002505,-3.15354 z"
             id="path3253"
             transform="translate(0,-0.6811348)"
             sodipodi:nodetypes="cczzzc"
             inkscape:connector-curvature="0" />
        </g>
        <path
           style="fill:#2e3436;fill-opacity:1;fill-rule:evenodd;stroke:none"
           d="m 43.375571,23.024221 -0.0061,5.815388 -3.858674,-4.190544 c 0,0 1.059724,0.414866 2.219218,-0.07923 1.13683,-0.484436 1.645605,-1.545614 1.645605,-1.545614 z"
           id="path11619"
           sodipodi:nodetypes="ccczc"
           inkscape:connector-curvature="0" />
      </g>
    </g>
  </g>
</svg>
