<?xml version="1.0" encoding="UTF-8" standalone="no"?>
<!-- Created with Inkscape (http://www.inkscape.org/) -->

<svg
   xmlns:dc="http://purl.org/dc/elements/1.1/"
   xmlns:cc="http://creativecommons.org/ns#"
   xmlns:rdf="http://www.w3.org/1999/02/22-rdf-syntax-ns#"
   xmlns:svg="http://www.w3.org/2000/svg"
   xmlns="http://www.w3.org/2000/svg"
   xmlns:xlink="http://www.w3.org/1999/xlink"
   xmlns:sodipodi="http://sodipodi.sourceforge.net/DTD/sodipodi-0.dtd"
   xmlns:inkscape="http://www.inkscape.org/namespaces/inkscape"
   width="32"
   height="32"
   id="svg2"
   sodipodi:version="0.32"
   inkscape:version="0.48.3.1 r9886"
   version="1.0"
   sodipodi:docname="emulica-loop-observer.svg"
   inkscape:output_extension="org.inkscape.output.svg.inkscape"
   inkscape:export-filename="/home/remi/ProjetsThese/Projets/pyseme/pixmap/loop-actuator16.png"
   inkscape:export-xdpi="30"
   inkscape:export-ydpi="30">
  <defs
     id="defs4">
    <linearGradient
       id="linearGradient3406">
      <stop
         style="stop-color:#d3d7cf;stop-opacity:1"
         offset="0"
         id="stop3408" />
      <stop
         style="stop-color:#eeeeec;stop-opacity:1"
         offset="1"
         id="stop3410" />
    </linearGradient>
    <linearGradient
       id="linearGradient3400">
      <stop
         style="stop-color:#ef2929;stop-opacity:1"
         offset="0"
         id="stop3402" />
      <stop
         style="stop-color:#eeeeec;stop-opacity:1"
         offset="1"
         id="stop3404" />
    </linearGradient>
    <linearGradient
       id="linearGradient3394">
      <stop
         id="stop3396"
         offset="0"
         style="stop-color:#8ae234;stop-opacity:1" />
      <stop
         id="stop3398"
         offset="1"
         style="stop-color:#eeeeec;stop-opacity:1" />
    </linearGradient>
    <linearGradient
       id="linearGradient3388">
      <stop
         id="stop3390"
         offset="0"
         style="stop-color:#8ae234;stop-opacity:1" />
      <stop
         id="stop3392"
         offset="1"
         style="stop-color:#eeeeec;stop-opacity:1" />
    </linearGradient>
    <linearGradient
       id="linearGradient3341">
      <stop
         id="stop3343"
         offset="0"
         style="stop-color:#cccccc;stop-opacity:1" />
      <stop
         id="stop3345"
         offset="1"
         style="stop-color:#ffffff;stop-opacity:1" />
    </linearGradient>
    <linearGradient
       id="linearGradient3265">
      <stop
         id="stop3267"
         offset="0"
         style="stop-color:#ff0000;stop-opacity:1" />
      <stop
         id="stop3269"
         offset="1"
         style="stop-color:#ffffff;stop-opacity:1" />
    </linearGradient>
    <linearGradient
       id="linearGradient3203">
      <stop
         style="stop-color:#0000ff;stop-opacity:1;"
         offset="0"
         id="stop3205" />
      <stop
         style="stop-color:#0000ff;stop-opacity:0;"
         offset="1"
         id="stop3207" />
    </linearGradient>
    <marker
       inkscape:stockid="Arrow2Mend"
       orient="auto"
       refY="0"
       refX="0"
       id="Arrow2Mend"
       style="overflow:visible">
      <path
         id="path3243"
         style="font-size:12px;fill-rule:evenodd;stroke-width:0.625;stroke-linejoin:round"
         d="M 8.7185878,4.0337352 -2.2072895,0.01601326 8.7185884,-4.0017078 c -1.7454984,2.3720609 -1.7354408,5.6174519 -6e-7,8.035443 z"
         transform="scale(-0.6,-0.6)"
         inkscape:connector-curvature="0" />
    </marker>
    <marker
       inkscape:stockid="Arrow1Mend"
       orient="auto"
       refY="0"
       refX="0"
       id="Arrow1Mend"
       style="overflow:visible">
      <path
         id="path3225"
         d="M 0,0 5,-5 -12.5,0 5,5 0,0 z"
         style="fill-rule:evenodd;stroke:#000000;stroke-width:1pt;marker-start:none"
         transform="matrix(-0.4,0,0,-0.4,-4,0)"
         inkscape:connector-curvature="0" />
    </marker>
    <marker
       inkscape:stockid="TriangleOutM"
       orient="auto"
       refY="0"
       refX="0"
       id="TriangleOutM"
       style="overflow:visible">
      <path
         id="path3362"
         d="m 5.77,0 -8.65,5 0,-10 8.65,5 z"
         style="fill-rule:evenodd;stroke:#000000;stroke-width:1pt;marker-start:none"
         transform="scale(0.4,0.4)"
         inkscape:connector-curvature="0" />
    </marker>
    <marker
       inkscape:stockid="Arrow1Lend"
       orient="auto"
       refY="0"
       refX="0"
       id="Arrow1Lend"
       style="overflow:visible">
      <path
         id="path3219"
         d="M 0,0 5,-5 -12.5,0 5,5 0,0 z"
         style="fill-rule:evenodd;stroke:#000000;stroke-width:1pt;marker-start:none"
         transform="matrix(-0.8,0,0,-0.8,-10,0)"
         inkscape:connector-curvature="0" />
    </marker>
    <inkscape:perspective
       sodipodi:type="inkscape:persp3d"
       inkscape:vp_x="0 : 526.18109 : 1"
       inkscape:vp_y="0 : 1000 : 0"
       inkscape:vp_z="744.09448 : 526.18109 : 1"
       inkscape:persp3d-origin="372.04724 : 350.78739 : 1"
       id="perspective10" />
    <linearGradient
       inkscape:collect="always"
       xlink:href="#linearGradient3203"
       id="linearGradient3209"
       x1="17.951576"
       y1="27.132767"
       x2="15.151117"
       y2="15.227998"
       gradientUnits="userSpaceOnUse" />
    <linearGradient
       inkscape:collect="always"
       xlink:href="#linearGradient3203"
       id="linearGradient3224"
       gradientUnits="userSpaceOnUse"
       x1="17.951576"
       y1="27.132767"
       x2="15.151117"
       y2="15.227998" />
    <linearGradient
       inkscape:collect="always"
       xlink:href="#linearGradient3203"
       id="linearGradient3239"
       gradientUnits="userSpaceOnUse"
       x1="17.951576"
       y1="27.132767"
       x2="15.151117"
       y2="15.227998" />
    <linearGradient
       inkscape:collect="always"
       xlink:href="#linearGradient3265"
       id="linearGradient3255"
       gradientUnits="userSpaceOnUse"
       x1="17.951576"
       y1="27.132767"
       x2="15.151117"
       y2="15.227998" />
    <linearGradient
       inkscape:collect="always"
       xlink:href="#linearGradient3265"
       id="linearGradient3273"
       gradientUnits="userSpaceOnUse"
       x1="17.951576"
       y1="27.132767"
       x2="15.151117"
       y2="15.227998" />
    <linearGradient
       inkscape:collect="always"
       xlink:href="#linearGradient3203"
       id="linearGradient3285"
       gradientUnits="userSpaceOnUse"
       x1="17.951576"
       y1="27.132767"
       x2="15.151117"
       y2="15.227998" />
    <linearGradient
       inkscape:collect="always"
       xlink:href="#linearGradient3203"
       id="linearGradient3295"
       gradientUnits="userSpaceOnUse"
       x1="17.951576"
       y1="27.132767"
       x2="15.151117"
       y2="15.227998" />
    <linearGradient
       inkscape:collect="always"
       xlink:href="#linearGradient3203"
       id="linearGradient3313"
       gradientUnits="userSpaceOnUse"
       x1="17.951576"
       y1="27.132767"
       x2="15.151117"
       y2="15.227998" />
    <linearGradient
       inkscape:collect="always"
       xlink:href="#linearGradient3203"
       id="linearGradient3315"
       gradientUnits="userSpaceOnUse"
       x1="17.951576"
       y1="27.132767"
       x2="15.151117"
       y2="15.227998" />
    <linearGradient
       inkscape:collect="always"
       xlink:href="#linearGradient3203"
       id="linearGradient3327"
       gradientUnits="userSpaceOnUse"
       x1="17.951576"
       y1="27.132767"
       x2="15.151117"
       y2="15.227998" />
    <linearGradient
       inkscape:collect="always"
       xlink:href="#linearGradient3341"
       id="linearGradient3339"
       gradientUnits="userSpaceOnUse"
       x1="17.951576"
       y1="27.132767"
       x2="15.151117"
       y2="15.227998" />
    <linearGradient
       inkscape:collect="always"
       xlink:href="#linearGradient3203"
       id="linearGradient3347"
       gradientUnits="userSpaceOnUse"
       x1="17.951576"
       y1="27.132767"
       x2="15.151117"
       y2="15.227998" />
    <linearGradient
       inkscape:collect="always"
       xlink:href="#linearGradient3406"
       id="linearGradient3380"
       gradientUnits="userSpaceOnUse"
       x1="17.951576"
       y1="27.132767"
       x2="15.151117"
       y2="15.227998" />
    <linearGradient
       inkscape:collect="always"
       xlink:href="#linearGradient3394"
       id="linearGradient3382"
       gradientUnits="userSpaceOnUse"
       x1="17.951576"
       y1="27.132767"
       x2="15.151117"
       y2="15.227998" />
    <linearGradient
       inkscape:collect="always"
       xlink:href="#linearGradient3388"
       id="linearGradient3384"
       gradientUnits="userSpaceOnUse"
       x1="17.951576"
       y1="27.132767"
       x2="15.151117"
       y2="15.227998" />
    <linearGradient
       inkscape:collect="always"
       xlink:href="#linearGradient3400"
       id="linearGradient3386"
       gradientUnits="userSpaceOnUse"
       x1="17.951576"
       y1="27.132767"
       x2="15.151117"
       y2="15.227998" />
  </defs>
  <sodipodi:namedview
     id="base"
     pagecolor="#ffffff"
     bordercolor="#666666"
     borderopacity="1.0"
     inkscape:pageopacity="0.0"
     inkscape:pageshadow="2"
     inkscape:zoom="9.359375"
     inkscape:cx="13.088481"
     inkscape:cy="31.145242"
     inkscape:document-units="px"
     inkscape:current-layer="g3349"
     showgrid="false"
     inkscape:window-width="1439"
     inkscape:window-height="827"
     inkscape:window-x="0"
     inkscape:window-y="27"
     showguides="true"
     inkscape:guide-bbox="true"
     inkscape:window-maximized="0" />
  <metadata
     id="metadata7">
    <rdf:RDF>
      <cc:Work
         rdf:about="">
        <dc:format>image/svg+xml</dc:format>
        <dc:type
           rdf:resource="http://purl.org/dc/dcmitype/StillImage" />
      </cc:Work>
    </rdf:RDF>
  </metadata>
  <g
     inkscape:label="Calque 1"
     inkscape:groupmode="layer"
     id="layer1"
     transform="translate(0,-32)">
    <g
       id="g11647"
       transform="translate(0,0.6811348)">
      <g
         id="g3349"
         transform="translate(0.1869785,1.0041153)">
        <path
           sodipodi:type="arc"
           style="fill:none;stroke:#babdb6;stroke-width:0.861;stroke-linejoin:round;stroke-miterlimit:4;stroke-opacity:1;stroke-dasharray:none;marker-end:none"
           id="path8868"
           sodipodi:cx="8.1335564"
           sodipodi:cy="11.859766"
           sodipodi:rx="6.2103505"
           sodipodi:ry="5.7696161"
           d="M 8.2280794,17.628714 A 6.2103505,5.7696161 0 0 1 1.9351917,12.21805"
           sodipodi:start="1.5555755"
           sodipodi:end="3.0794542"
           transform="matrix(-1.7371761,0,0,-1.9250464,29.826492,69.454317)"
           sodipodi:open="true" />
        <path
           sodipodi:type="arc"
           style="fill:none;stroke:#2e3436;stroke-width:0.861;stroke-linejoin:round;stroke-miterlimit:4;stroke-opacity:1;stroke-dasharray:none;marker-end:none"
           id="path11687"
           sodipodi:cx="8.1335564"
           sodipodi:cy="11.859766"
           sodipodi:rx="6.2103505"
           sodipodi:ry="5.7696161"
           d="M 14.32669,12.28909 A 6.2103505,5.7696161 0 0 1 8.4760096,17.620604"
           sodipodi:start="0.074480109"
           sodipodi:end="1.515626"
           transform="matrix(-1.7371761,0,0,-1.9250464,29.83463,69.487136)"
           sodipodi:open="true" />
        <path
           sodipodi:type="arc"
           style="fill:none;stroke:#2e3436;stroke-width:0.861;stroke-linejoin:round;stroke-miterlimit:4;stroke-opacity:1;stroke-dasharray:none;marker-end:none"
           id="path11078"
           sodipodi:cx="8.1335564"
           sodipodi:cy="11.859766"
           sodipodi:rx="6.2103505"
           sodipodi:ry="5.7696161"
           d="M 14.013093,13.717716 A 6.2103505,5.7696161 0 0 1 8.0161867,17.628352"
           sodipodi:start="0.32786577"
           sodipodi:end="1.5896965"
           transform="matrix(-1.7371761,0,0,1.9250464,29.88195,23.756735)"
           sodipodi:open="true" />
        <path
           sodipodi:type="arc"
           style="fill:none;stroke:#000000;stroke-width:4;stroke-linejoin:round;stroke-miterlimit:4;stroke-opacity:1;stroke-dasharray:none"
           id="path2415"
           sodipodi:cx="15.643724"
           sodipodi:cy="7.6275306"
           sodipodi:rx="0"
           sodipodi:ry="0.34008098"
           sodipodi:start="0.00022780819"
           sodipodi:end="0.00075601638"
           sodipodi:open="true"
           transform="matrix(1.3418935,0,0,1.3069449,0.03700693,-0.5641838)" />
        <path
           sodipodi:type="arc"
           style="fill:none;stroke:#babdb6;stroke-width:0.861;stroke-linejoin:round;stroke-miterlimit:4;stroke-opacity:1;stroke-dasharray:none;marker-end:none"
           id="path10537"
           sodipodi:cx="8.1335564"
           sodipodi:cy="11.859766"
           sodipodi:rx="6.2103505"
           sodipodi:ry="5.7696161"
           d="M 5.1562087,16.923107 A 6.2103505,5.7696161 0 0 1 2.0726497,13.117864"
           sodipodi:start="2.0707866"
           sodipodi:end="2.9217709"
           transform="matrix(-1.7371761,0,0,1.9250464,29.931624,23.658381)"
           sodipodi:open="true" />
        <g
           id="g3329"
           transform="matrix(0.66344659,0,0,0.68060777,10.460073,19.837525)">
          <g
             id="g3331">
            <path
               transform="matrix(-1.0130914,0,0,-0.9695384,21.943687,45.735342)"
               sodipodi:open="true"
               sodipodi:end="6.2738032"
               sodipodi:start="0.00022780819"
               d="m 21.795355,23.661087 c -0.001,2.830941 -3.713127,5.125349 -8.29117,5.124704 -4.5780442,-6.45e-4 -8.2884365,-2.296099 -8.2873936,-5.127039 0.00104,-2.83094 3.7131261,-5.125348 8.2911696,-5.124703 4.546966,6.4e-4 8.24437,2.266181 8.287029,5.07778"
               sodipodi:ry="5.1258712"
               sodipodi:rx="8.2892818"
               sodipodi:cy="23.65992"
               sodipodi:cx="13.506073"
               id="path3333"
               style="fill:#ffffff;fill-opacity:1;fill-rule:nonzero;stroke:none"
               sodipodi:type="arc" />
            <path
               transform="matrix(-1.0130914,0,0,-0.9695384,22.014641,45.778515)"
               sodipodi:open="true"
               sodipodi:end="6.2738032"
               sodipodi:start="0.00022780819"
               d="m 21.795355,23.661087 c -0.001,2.830941 -3.713127,5.125349 -8.29117,5.124704 -4.5780442,-6.45e-4 -8.2884365,-2.296099 -8.2873936,-5.127039 0.00104,-2.83094 3.7131261,-5.125348 8.2911696,-5.124703 4.546966,6.4e-4 8.24437,2.266181 8.287029,5.07778"
               sodipodi:ry="5.1258712"
               sodipodi:rx="8.2892818"
               sodipodi:cy="23.65992"
               sodipodi:cx="13.506073"
               id="path3335"
               style="fill:url(#linearGradient3380);fill-opacity:1;fill-rule:nonzero;stroke:none"
               sodipodi:type="arc" />
          </g>
          <path
             sodipodi:nodetypes="cczzzc"
             transform="translate(0,-0.6811348)"
             id="path3337"
             d="m 16.747913,23.559265 c -11.4771603,-0.0049 -15.7061768,2.422617 -15.7061768,2.422617 0,0 1.2231216,1.069464 2.5763545,1.644752 1.3906279,0.591185 4.7248644,1.332899 7.0893793,0.688105 2.390897,-0.651988 2.803065,-0.747118 4.037938,-1.601934 1.234873,-0.854815 2.002505,-2.184011 2.002505,-3.15354 z"
             style="fill:#d3d7cf;fill-opacity:1;fill-rule:evenodd;stroke:none"
             inkscape:connector-curvature="0" />
        </g>
        <g
           transform="matrix(0.66344659,0,0,0.68060777,10.279257,41.681819)"
           id="g3297">
          <g
             id="g3233">
            <path
               sodipodi:type="arc"
               style="fill:#ffffff;fill-opacity:1;fill-rule:nonzero;stroke:none"
               id="path3241"
               sodipodi:cx="13.506073"
               sodipodi:cy="23.65992"
               sodipodi:rx="8.2892818"
               sodipodi:ry="5.1258712"
               d="m 21.795355,23.661087 c -0.001,2.830941 -3.713127,5.125349 -8.29117,5.124704 -4.5780442,-6.45e-4 -8.2884365,-2.296099 -8.2873936,-5.127039 0.00104,-2.83094 3.7131261,-5.125348 8.2911696,-5.124703 4.546966,6.4e-4 8.24437,2.266181 8.287029,5.07778"
               sodipodi:start="0.00022780819"
               sodipodi:end="6.2738032"
               sodipodi:open="true"
               transform="matrix(-1.0130914,0,0,-0.9695384,21.943687,45.735342)" />
            <path
               sodipodi:type="arc"
               style="fill:url(#linearGradient3382);fill-opacity:1;fill-rule:nonzero;stroke:none"
               id="path3235"
               sodipodi:cx="13.506073"
               sodipodi:cy="23.65992"
               sodipodi:rx="8.2892818"
               sodipodi:ry="5.1258712"
               d="m 21.795355,23.661087 c -0.001,2.830941 -3.713127,5.125349 -8.29117,5.124704 -4.5780442,-6.45e-4 -8.2884365,-2.296099 -8.2873936,-5.127039 0.00104,-2.83094 3.7131261,-5.125348 8.2911696,-5.124703 4.546966,6.4e-4 8.24437,2.266181 8.287029,5.07778"
               sodipodi:start="0.00022780819"
               sodipodi:end="6.2738032"
               sodipodi:open="true"
               transform="matrix(-1.0130914,0,0,-0.9695384,22.014641,45.778515)" />
          </g>
          <path
             style="fill:#8ae234;fill-opacity:1;fill-rule:evenodd;stroke:none"
             d="m 16.747913,23.559265 c -11.4771603,-0.0049 -15.7061768,2.422617 -15.7061768,2.422617 0,0 1.2231216,1.069464 2.5763545,1.644752 1.3906279,0.591185 4.7248644,1.332899 7.0893793,0.688105 2.390897,-0.651988 2.803065,-0.747118 4.037938,-1.601934 1.234873,-0.854815 2.002505,-2.184011 2.002505,-3.15354 z"
             id="path3237"
             transform="translate(0,-0.6811348)"
             sodipodi:nodetypes="cczzzc"
             inkscape:connector-curvature="0" />
        </g>
        <path
           style="fill:#babdb6;fill-opacity:1;fill-rule:evenodd;stroke:none"
           d="m 23.022261,57.41086 -5.763055,0.898929 3.770223,-4.547521 c 0,0 -0.33536,1.073946 0.269302,2.168004 0.592841,1.07267 1.72353,1.480588 1.72353,1.480588 z"
           id="path11615"
           sodipodi:nodetypes="ccczc"
           inkscape:connector-curvature="0" />
        <g
           id="g3303"
           transform="matrix(0.66344659,0,0,0.68060777,20.723004,30.679528)">
          <g
             id="g3305">
            <path
               sodipodi:type="arc"
               style="fill:#ffffff;fill-opacity:1;fill-rule:nonzero;stroke:none"
               id="path3307"
               sodipodi:cx="13.506073"
               sodipodi:cy="23.65992"
               sodipodi:rx="8.2892818"
               sodipodi:ry="5.1258712"
               d="m 21.795355,23.661087 c -0.001,2.830941 -3.713127,5.125349 -8.29117,5.124704 -4.5780442,-6.45e-4 -8.2884365,-2.296099 -8.2873936,-5.127039 0.00104,-2.83094 3.7131261,-5.125348 8.2911696,-5.124703 4.546966,6.4e-4 8.24437,2.266181 8.287029,5.07778"
               sodipodi:start="0.00022780819"
               sodipodi:end="6.2738032"
               sodipodi:open="true"
               transform="matrix(-1.0130914,0,0,-0.9695384,21.943687,45.735342)" />
            <path
               sodipodi:type="arc"
               style="fill:url(#linearGradient3384);fill-opacity:1;fill-rule:nonzero;stroke:none"
               id="path3309"
               sodipodi:cx="13.506073"
               sodipodi:cy="23.65992"
               sodipodi:rx="8.2892818"
               sodipodi:ry="5.1258712"
               d="m 21.795355,23.661087 c -0.001,2.830941 -3.713127,5.125349 -8.29117,5.124704 -4.5780442,-6.45e-4 -8.2884365,-2.296099 -8.2873936,-5.127039 0.00104,-2.83094 3.7131261,-5.125348 8.2911696,-5.124703 4.546966,6.4e-4 8.24437,2.266181 8.287029,5.07778"
               sodipodi:start="0.00022780819"
               sodipodi:end="6.2738032"
               sodipodi:open="true"
               transform="matrix(-1.0130914,0,0,-0.9695384,22.014641,45.778515)" />
          </g>
          <path
             style="fill:#8ae234;fill-opacity:1;fill-rule:evenodd;stroke:none"
             d="m 16.747913,23.559265 c -11.4771603,-0.0049 -15.7061768,2.422617 -15.7061768,2.422617 0,0 1.2231216,1.069464 2.5763545,1.644752 1.3906279,0.591185 4.7248644,1.332899 7.0893793,0.688105 2.390897,-0.651988 2.803065,-0.747118 4.037938,-1.601934 1.234873,-0.854815 2.002505,-2.184011 2.002505,-3.15354 z"
             id="path3311"
             transform="translate(0,-0.6811348)"
             sodipodi:nodetypes="cczzzc"
             inkscape:connector-curvature="0" />
        </g>
        <path
           style="fill:#2e3436;fill-opacity:1;fill-rule:evenodd;stroke:none"
           d="M 7.3758344,36.523988 13.138889,35.62506 9.3686667,40.172581 c 0,0 0.3353599,-1.073948 -0.2693024,-2.168004 -0.592841,-1.072671 -1.7235299,-1.480589 -1.7235299,-1.480589 z"
           id="path11625"
           sodipodi:nodetypes="ccczc"
           inkscape:connector-curvature="0" />
        <g
           transform="matrix(0.66344659,0,0,0.68060777,-0.14095202,31.061304)"
           id="g3245">
          <g
             id="g3247">
            <path
               sodipodi:type="arc"
               style="fill:#ffffff;fill-opacity:1;fill-rule:nonzero;stroke:none"
               id="path3249"
               sodipodi:cx="13.506073"
               sodipodi:cy="23.65992"
               sodipodi:rx="8.2892818"
               sodipodi:ry="5.1258712"
               d="m 21.795355,23.661087 c -0.001,2.830941 -3.713127,5.125349 -8.29117,5.124704 -4.5780442,-6.45e-4 -8.2884365,-2.296099 -8.2873936,-5.127039 0.00104,-2.83094 3.7131261,-5.125348 8.2911696,-5.124703 4.546966,6.4e-4 8.24437,2.266181 8.287029,5.07778"
               sodipodi:start="0.00022780819"
               sodipodi:end="6.2738032"
               sodipodi:open="true"
               transform="matrix(-1.0130914,0,0,-0.9695384,21.979164,45.756928)" />
            <path
               sodipodi:type="arc"
               style="fill:url(#linearGradient3386);fill-opacity:1;fill-rule:nonzero;stroke:none"
               id="path3251"
               sodipodi:cx="13.506073"
               sodipodi:cy="23.65992"
               sodipodi:rx="8.2892818"
               sodipodi:ry="5.1258712"
               d="m 21.795355,23.661087 c -0.001,2.830941 -3.713127,5.125349 -8.29117,5.124704 -4.5780442,-6.45e-4 -8.2884365,-2.296099 -8.2873936,-5.127039 0.00104,-2.83094 3.7131261,-5.125348 8.2911696,-5.124703 4.546966,6.4e-4 8.24437,2.266181 8.287029,5.07778"
               sodipodi:start="0.00022780819"
               sodipodi:end="6.2738032"
               sodipodi:open="true"
               transform="matrix(-1.0130914,0,0,-0.9695384,21.979164,45.756928)" />
          </g>
          <path
             style="fill:#ef2929;fill-opacity:1;fill-rule:evenodd;stroke:none"
             d="m 16.747913,23.559265 c -11.4771603,-0.0049 -15.7061768,2.422617 -15.7061768,2.422617 0,0 1.2231216,1.069464 2.5763545,1.644752 1.3906279,0.591185 4.7248644,1.332899 7.0893793,0.688105 2.390897,-0.651988 2.803065,-0.747118 4.037938,-1.601934 1.234873,-0.854815 2.002505,-2.184011 2.002505,-3.15354 z"
             id="path3253"
             transform="translate(0,-0.6811348)"
             sodipodi:nodetypes="cczzzc"
             inkscape:connector-curvature="0" />
        </g>
        <path
           style="fill:#babdb6;fill-opacity:1;fill-rule:evenodd;stroke:none"
           d="m 27.428192,40.935773 -0.319695,5.863977 -3.634239,-4.424718 c 0,0 1.037768,0.472988 2.224354,0.03451 1.163391,-0.429901 1.72958,-1.473774 1.72958,-1.473774 z"
           id="path11623"
           sodipodi:nodetypes="ccczc"
           inkscape:connector-curvature="0" />
        <path
           style="fill:#2e3436;fill-opacity:1;fill-rule:evenodd;stroke:none"
           d="m 4.2016599,52.446037 0.00616,-5.872367 3.8654911,4.231603 c 0,0 -1.0615962,-0.41893 -2.2231385,0.08001 C 4.7113343,51.374466 4.20166,52.446041 4.20166,52.446041 z"
           id="path11619"
           sodipodi:nodetypes="ccczc"
           inkscape:connector-curvature="0" />
      </g>
    </g>
  </g>
</svg>
